<svg width="28" height="28" viewBox="0 0 28 28" fill="none" xmlns="http://www.w3.org/2000/svg">
<path d="M3.62499 27.333C2.79166 27.333 2.09033 27.0483 1.52099 26.479C0.951659 25.9097 0.666992 25.2083 0.666992 24.375C0.666992 23.5697 0.951659 22.882 1.52099 22.312C2.09033 21.7427 2.79166 21.458 3.62499 21.458C4.43033 21.458 5.11799 21.7427 5.68799 22.312C6.25733 22.882 6.54199 23.5697 6.54199 24.375C6.54199 25.2083 6.25733 25.9097 5.68799 26.479C5.11799 27.0483 4.43033 27.333 3.62499 27.333ZM3.62499 16.958C2.79166 16.958 2.09033 16.6733 1.52099 16.104C0.951659 15.5347 0.666992 14.8333 0.666992 14C0.666992 13.1667 0.951659 12.4653 1.52099 11.896C2.09033 11.3267 2.79166 11.042 3.62499 11.042C4.43033 11.042 5.11799 11.3267 5.68799 11.896C6.25733 12.4653 6.54199 13.1667 6.54199 14C6.54199 14.8333 6.25733 15.5347 5.68799 16.104C5.11799 16.6733 4.43033 16.958 3.62499 16.958ZM3.62499 6.54199C2.79166 6.54199 2.09033 6.25733 1.52099 5.68799C0.951659 5.11799 0.666992 4.43033 0.666992 3.62499C0.666992 2.79166 0.951659 2.09033 1.52099 1.52099C2.09033 0.951659 2.79166 0.666992 3.62499 0.666992C4.43033 0.666992 5.11799 0.951659 5.68799 1.52099C6.25733 2.09033 6.54199 2.79166 6.54199 3.62499C6.54199 4.43033 6.25733 5.11799 5.68799 5.68799C5.11799 6.25733 4.43033 6.54199 3.62499 6.54199ZM14 16.958C13.1667 16.958 12.4653 16.6733 11.896 16.104C11.3267 15.5347 11.042 14.8333 11.042 14C11.042 13.1667 11.3267 12.4653 11.896 11.896C12.4653 11.3267 13.1667 11.042 14 11.042C14.8333 11.042 15.5347 11.3267 16.104 11.896C16.6733 12.4653 16.958 13.1667 16.958 14L14 16.958ZM14 6.54199C13.1667 6.54199 12.4653 6.25733 11.896 5.68799C11.3267 5.11799 11.042 4.43033 11.042 3.62499C11.042 2.79166 11.3267 2.09033 11.896 1.52099C12.4653 0.951659 13.1667 0.666992 14 0.666992C14.8333 0.666992 15.5347 0.951659 16.104 1.52099C16.6733 2.09033 16.958 2.79166 16.958 3.62499C16.958 4.43033 16.6733 5.11799 16.104 5.68799C15.5347 6.25733 14.8333 6.54199 14 6.54199ZM12.333 27.333V24.333L22.042 14.667L25 17.625L15.333 27.333H12.333ZM24.375 6.54199C23.5697 6.54199 22.882 6.25733 22.312 5.68799C21.7427 5.11799 21.458 4.43033 21.458 3.62499C21.458 2.79166 21.7427 2.09033 22.312 1.52099C22.882 0.951659 23.5697 0.666992 24.375 0.666992C25.2083 0.666992 25.9097 0.951659 26.479 1.52099C27.0483 2.09033 27.333 2.79166 27.333 3.62499C27.333 4.43033 27.0483 5.11799 26.479 5.68799C25.9097 6.25733 25.2083 6.54199 24.375 6.54199ZM26.125 16.542L23.125 13.542L24.25 12.458C24.5 12.1807 24.8127 12.042 25.188 12.042C25.5627 12.042 25.875 12.167 26.125 12.417L27.25 13.542C27.5 13.792 27.625 14.1043 27.625 14.479C27.625 14.8543 27.486 15.167 27.208 15.417L26.125 16.542Z" fill="#FF8A00"/>
</svg>
