<svg width="32" height="34" viewBox="0 0 32 34" fill="none" xmlns="http://www.w3.org/2000/svg">
<path d="M5.875 15.167L15.042 0.333008L24.208 15.167H5.875ZM24.333 33.667C22.2777 33.667 20.5417 32.9587 19.125 31.542C17.7083 30.1253 17 28.389 17 26.333C17 24.2777 17.7083 22.5417 19.125 21.125C20.5417 19.7083 22.2777 19 24.333 19C26.389 19 28.1253 19.7083 29.542 21.125C30.9587 22.5417 31.667 24.2777 31.667 26.333C31.667 28.389 30.9587 30.1253 29.542 31.542C28.1253 32.9587 26.389 33.667 24.333 33.667ZM0 32.708V19.792H12.875V32.708H0ZM24.333 30.875C25.611 30.875 26.6873 30.4373 27.562 29.562C28.4373 28.6873 28.875 27.611 28.875 26.333C28.875 25.0557 28.4373 23.9793 27.562 23.104C26.6873 22.2293 25.611 21.792 24.333 21.792C23.0557 21.792 21.9793 22.2293 21.104 23.104C20.2293 23.9793 19.792 25.0557 19.792 26.333C19.792 27.611 20.2293 28.6873 21.104 29.562C21.9793 30.4373 23.0557 30.875 24.333 30.875ZM2.792 29.917H10.125V22.583H2.792V29.917ZM10.833 12.375H19.208L15.042 5.62501L10.833 12.375Z" fill="#FF8A00"/>
</svg>
