<svg width="28" height="34" viewBox="0 0 28 34" fill="none" xmlns="http://www.w3.org/2000/svg">
<path d="M12.625 28.625H15.375V26.958H17.625C18.0137 26.958 18.34 26.826 18.604 26.562C18.868 26.2987 19 25.9723 19 25.583V20.292C19 19.9027 18.868 19.576 18.604 19.312C18.34 19.0487 18.0137 18.917 17.625 18.917H11.792V16.417H19V13.625H15.375V11.958H12.625V13.625H10.375C9.98633 13.625 9.65999 13.757 9.39599 14.021C9.13199 14.285 8.99999 14.6253 8.99999 15.042V20.292C8.99999 20.6807 9.13199 21.014 9.39599 21.292C9.65999 21.5693 9.98633 21.708 10.375 21.708H16.208V24.208H8.99999V26.958H12.625V28.625ZM3.45799 33.667C2.70799 33.667 2.05533 33.389 1.49999 32.833C0.944659 32.2777 0.666992 31.625 0.666992 30.875V3.12501C0.666992 2.37501 0.944659 1.72234 1.49999 1.16701C2.05533 0.611008 2.70799 0.333008 3.45799 0.333008H17.917L27.333 9.75001V30.875C27.333 31.625 27.0553 32.2777 26.5 32.833C25.9447 33.389 25.292 33.667 24.542 33.667H3.45799ZM15.958 9.75001V3.12501H3.45799V30.875H24.542V9.75001H15.958Z" fill="#FF8A00"/>
</svg>
