<svg width="36" height="33" viewBox="0 0 36 33" fill="none" xmlns="http://www.w3.org/2000/svg">
<path d="M17 15.042L3.12501 6.08299V24.542H18.958V27.333H3.12501C2.37501 27.333 1.72234 27.0553 1.16701 26.5C0.611008 25.9447 0.333008 25.292 0.333008 24.542V3.45799C0.333008 2.70799 0.611008 2.05533 1.16701 1.49999C1.72234 0.944659 2.37501 0.666992 3.12501 0.666992H30.875C31.625 0.666992 32.2777 0.944659 32.833 1.49999C33.389 2.05533 33.667 2.70799 33.667 3.45799V15.958H30.875V6.08299L17 15.042ZM17 12.292L30.875 3.45799H3.12501L17 12.292ZM29.042 32.208L27.125 30.292L30 27.333H21.708V24.542H30L27.083 21.625L29.042 19.667L35.333 25.958L29.042 32.208ZM3.12501 6.08299V26.042V15.958V16.083V3.45799V6.08299Z" fill="#FF8A00"/>
</svg>
